<?xml version="1.0" encoding="utf-8"?>
<!-- Generator: Adobe Illustrator 23.0.2, SVG Export Plug-In . SVG Version: 6.00 Build 0)  -->
<svg version="1.1" id="Layer_1" xmlns="http://www.w3.org/2000/svg" xmlns:xlink="http://www.w3.org/1999/xlink" x="0px" y="0px"
	 viewBox="0 0 215.1 61.4" style="enable-background:new 0 0 215.1 61.4;" xml:space="preserve">
<style type="text/css">
	.st0{fill:#1A1A1A;}
	.st1{display:none;}
	.st2{display:inline;fill:none;stroke:#E5E5E5;stroke-width:0.25;stroke-miterlimit:100;}
	.st3{display:inline;fill-rule:evenodd;clip-rule:evenodd;fill:none;stroke:#E5E5E5;stroke-width:0.25;stroke-miterlimit:100;}
	.st4{fill:none;stroke:#E5E5E5;stroke-width:0.25;stroke-miterlimit:100;}
	.st5{fill-rule:evenodd;clip-rule:evenodd;fill:none;stroke:#E5E5E5;stroke-width:0.25;stroke-miterlimit:100;}
	.st6{fill-rule:evenodd;clip-rule:evenodd;fill:#3843D0;}
	.st7{fill:none;stroke:#FFFFFF;stroke-width:0.25;stroke-miterlimit:100;}
	.st8{fill-rule:evenodd;clip-rule:evenodd;fill:none;stroke:#FFFFFF;stroke-width:0.25;stroke-miterlimit:100;}
	.st9{fill-rule:evenodd;clip-rule:evenodd;fill:#20BF55;stroke:#A55E00;stroke-width:3.7;stroke-miterlimit:10;}
	.st10{fill-rule:evenodd;clip-rule:evenodd;fill:#20BF55;}
	.st11{fill:#333333;}
	.st12{fill-rule:evenodd;clip-rule:evenodd;fill:#333333;}
	.st13{fill:#3843D0;}
	.st14{fill-rule:evenodd;clip-rule:evenodd;fill:none;stroke:#3843D0;stroke-width:3.7;stroke-miterlimit:10;}
	.st15{fill-rule:evenodd;clip-rule:evenodd;fill:#E5ECAA;}
	.st16{fill-rule:evenodd;clip-rule:evenodd;fill:none;stroke:#A55E00;stroke-width:3.7;stroke-miterlimit:10;}
	.st17{fill-rule:evenodd;clip-rule:evenodd;fill:#A55E00;}
	.st18{fill-rule:evenodd;clip-rule:evenodd;fill:#FFFFFF;}
	.st19{display:inline;fill:none;stroke:#FFFFFF;stroke-width:0.25;stroke-miterlimit:100;}
	.st20{display:inline;fill-rule:evenodd;clip-rule:evenodd;fill:none;stroke:#FFFFFF;stroke-width:0.25;stroke-miterlimit:100;}
	.st21{fill-rule:evenodd;clip-rule:evenodd;fill:#BCF33A;}
	.st22{fill-rule:evenodd;clip-rule:evenodd;fill:#4151CF;}
	.st23{fill:none;stroke:#3843D0;stroke-width:3.7;stroke-miterlimit:10;}
	.st24{display:inline;fill:none;stroke:#000000;stroke-width:3.7;stroke-miterlimit:10;}
	.st25{fill:#00C444;}
	.st26{fill-rule:evenodd;clip-rule:evenodd;fill:#00C444;stroke:#000000;stroke-width:3.7;stroke-miterlimit:10;}
	.st27{fill-rule:evenodd;clip-rule:evenodd;fill:none;stroke:#000000;stroke-width:3.7;stroke-miterlimit:10;}
	.st28{fill:none;stroke:#000000;stroke-width:3.7;stroke-miterlimit:10;}
	.st29{fill-rule:evenodd;clip-rule:evenodd;fill:#8CC605;}
	.st30{fill-rule:evenodd;clip-rule:evenodd;}
	.st31{fill-rule:evenodd;clip-rule:evenodd;fill:#79D5C5;}
	.st32{fill-rule:evenodd;clip-rule:evenodd;fill:#00C444;}
	.st33{fill:#6ECFBD;}
	.st34{fill:none;stroke:#6ECFBD;stroke-width:3.7;stroke-miterlimit:10;}
	.st35{display:inline;}
	.st36{fill:#8CC605;}
	.st37{fill:#A55E00;}
	.st38{fill:#E5ECAA;}
	.st39{display:inline;fill:#333333;}
	.st40{fill:#FFFFFF;}
	.st41{display:inline;fill:#6ECFBD;}
	.st42{fill-rule:evenodd;clip-rule:evenodd;fill:none;stroke:#6ECFBD;stroke-width:3.7;stroke-miterlimit:10;}
</style>
<g>
	<g>
		<path class="st40" d="M158.8,47.3h2.8c0.3,0,0.7,0,1,0.1c0.3,0.1,0.6,0.2,0.8,0.4c0.2,0.2,0.4,0.4,0.5,0.6s0.2,0.6,0.2,0.9
			c0,0.5-0.1,0.8-0.4,1.1c-0.3,0.3-0.6,0.5-1,0.6v0c0.2,0,0.5,0.1,0.7,0.2c0.2,0.1,0.4,0.3,0.6,0.4c0.2,0.2,0.3,0.4,0.4,0.6
			c0.1,0.2,0.1,0.5,0.1,0.8c0,0.4-0.1,0.7-0.2,1c-0.1,0.3-0.4,0.5-0.6,0.7c-0.3,0.2-0.6,0.3-0.9,0.4c-0.3,0.1-0.7,0.1-1.1,0.1h-2.8
			V47.3z M159.9,50.6h1.5c0.2,0,0.4,0,0.6-0.1c0.2,0,0.3-0.1,0.5-0.2c0.1-0.1,0.2-0.2,0.3-0.4c0.1-0.2,0.1-0.3,0.1-0.6
			c0-0.3-0.1-0.6-0.3-0.8c-0.2-0.2-0.5-0.4-1-0.4h-1.7V50.6z M159.9,54.4h1.6c0.2,0,0.4,0,0.6-0.1c0.2,0,0.4-0.1,0.6-0.2
			c0.2-0.1,0.3-0.2,0.4-0.4c0.1-0.2,0.2-0.4,0.2-0.7c0-0.5-0.2-0.8-0.5-1.1c-0.3-0.2-0.7-0.4-1.3-0.4h-1.6V54.4z"/>
		<path class="st40" d="M165.1,49.9h1.2l1.6,4.2h0l1.5-4.2h1.1l-2.6,6.6c-0.1,0.2-0.2,0.5-0.3,0.6c-0.1,0.2-0.2,0.4-0.4,0.5
			c-0.1,0.1-0.3,0.2-0.5,0.3c-0.2,0.1-0.4,0.1-0.7,0.1c-0.2,0-0.3,0-0.5,0c-0.2,0-0.3-0.1-0.4-0.1l0.1-0.9c0.2,0.1,0.4,0.1,0.6,0.1
			c0.2,0,0.3,0,0.4-0.1c0.1,0,0.2-0.1,0.3-0.2c0.1-0.1,0.1-0.2,0.2-0.3c0.1-0.1,0.1-0.2,0.2-0.4l0.3-0.9L165.1,49.9z"/>
		<rect x="213.3" y="47.3" class="st40" width="1.8" height="8.1"/>
		<path class="st40" d="M211.8,50.6c-0.2-0.2-0.5-0.4-0.8-0.6c-0.3-0.1-0.7-0.2-1.1-0.2c-0.4,0-0.8,0.1-1.1,0.2
			c-0.4,0.1-0.7,0.3-0.9,0.6c-0.3,0.2-0.5,0.5-0.6,0.9c-0.2,0.4-0.2,0.7-0.2,1.2c0,0.4,0.1,0.9,0.2,1.2c0.2,0.3,0.4,0.6,0.6,0.9
			c0.3,0.2,0.6,0.4,0.9,0.5c0.4,0.1,0.7,0.2,1.1,0.2c0.5,0,1-0.1,1.4-0.3c0.4-0.2,0.7-0.5,1-0.8l-1.2-0.8c-0.1,0.2-0.3,0.3-0.5,0.4
			c-0.2,0.1-0.4,0.2-0.7,0.2c-0.2,0-0.3,0-0.5-0.1c-0.1-0.1-0.3-0.1-0.4-0.2c-0.1-0.1-0.2-0.2-0.3-0.3c-0.1-0.1-0.1-0.3-0.1-0.4
			l3.9,0c0-0.1,0-0.1,0-0.2v-0.2c0-0.5-0.1-0.9-0.2-1.2C212.2,51.2,212,50.9,211.8,50.6z M208.6,52.1c0-0.1,0-0.3,0.1-0.4
			c0.1-0.1,0.2-0.2,0.3-0.3c0.1-0.1,0.2-0.2,0.4-0.2c0.1-0.1,0.3-0.1,0.5-0.1c0.3,0,0.6,0.1,0.8,0.3c0.2,0.2,0.3,0.4,0.3,0.7H208.6z
			"/>
		<path class="st40" d="M205.8,50.7c-0.2-0.3-0.5-0.5-0.8-0.6c-0.3-0.1-0.7-0.2-1-0.2c-0.4,0-0.7,0.1-1,0.2
			c-0.3,0.1-0.5,0.3-0.6,0.5h0l0-3.3h-1.8v8.1h1.6l0-0.7h0c0.2,0.3,0.4,0.5,0.7,0.6c0.3,0.1,0.7,0.2,1,0.2c0.4,0,0.8-0.1,1.1-0.2
			c0.3-0.2,0.6-0.4,0.8-0.6c0.2-0.3,0.4-0.6,0.5-0.9c0.1-0.3,0.2-0.7,0.2-1.1c0-0.4-0.1-0.7-0.2-1.1C206.2,51.3,206,51,205.8,50.7z
			 M204.7,53.2c-0.1,0.2-0.1,0.3-0.2,0.4c-0.1,0.1-0.2,0.2-0.4,0.3c-0.2,0.1-0.3,0.1-0.5,0.1c-0.2,0-0.4,0-0.5-0.1
			c-0.2-0.1-0.3-0.2-0.4-0.3c-0.1-0.1-0.2-0.3-0.3-0.4c-0.1-0.2-0.1-0.3-0.1-0.5c0-0.2,0-0.3,0.1-0.5c0.1-0.2,0.1-0.3,0.3-0.4
			c0.1-0.1,0.2-0.2,0.4-0.3c0.2-0.1,0.3-0.1,0.5-0.1c0.2,0,0.4,0,0.5,0.1c0.2,0.1,0.3,0.2,0.4,0.3c0.1,0.1,0.2,0.3,0.2,0.4
			c0.1,0.2,0.1,0.3,0.1,0.5C204.8,52.8,204.8,53,204.7,53.2z"/>
		<path class="st40" d="M199.5,51.4c-0.1-0.4-0.2-0.6-0.4-0.9c-0.2-0.2-0.4-0.4-0.8-0.5c-0.3-0.1-0.7-0.2-1.1-0.2
			c-0.4,0-0.9,0.1-1.3,0.2c-0.4,0.1-0.8,0.4-1.1,0.7l0.9,1c0.2-0.2,0.4-0.3,0.6-0.4c0.2-0.1,0.5-0.2,0.7-0.2c0.3,0,0.5,0.1,0.7,0.2
			c0.2,0.1,0.3,0.3,0.3,0.6V52c-0.4,0-0.8,0-1.2,0.1c-0.4,0-0.8,0.1-1.1,0.3c-0.3,0.1-0.6,0.3-0.8,0.5c-0.2,0.2-0.3,0.5-0.3,0.9
			c0,0.3,0.1,0.6,0.2,0.8c0.1,0.2,0.3,0.4,0.5,0.5c0.2,0.1,0.4,0.2,0.6,0.3c0.2,0.1,0.4,0.1,0.7,0.1c0.3,0,0.6-0.1,0.9-0.2
			c0.3-0.1,0.5-0.3,0.6-0.5h0l0,0.6h1.6l0-2.7C199.6,52.2,199.6,51.8,199.5,51.4z M198,53.2c0,0.3-0.1,0.6-0.3,0.8
			c-0.2,0.2-0.5,0.3-0.8,0.3c-0.1,0-0.2,0-0.3,0c-0.1,0-0.2,0-0.2-0.1c-0.1,0-0.1-0.1-0.2-0.2c0-0.1-0.1-0.2-0.1-0.3
			c0-0.2,0.1-0.3,0.2-0.4c0.1-0.1,0.2-0.2,0.4-0.2c0.2-0.1,0.3-0.1,0.5-0.1c0.2,0,0.4,0,0.6,0l0.2,0L198,53.2z"/>
		<path class="st40" d="M193.5,50.7c-0.2-0.3-0.5-0.5-0.8-0.6c-0.3-0.1-0.7-0.2-1-0.2c-0.4,0-0.7,0.1-1,0.2
			c-0.3,0.1-0.5,0.3-0.6,0.5h0l0-3.3l-1.8,0v8.1h1.6l0-0.7h0c0.2,0.3,0.4,0.5,0.7,0.6c0.3,0.1,0.7,0.2,1,0.2c0.4,0,0.8-0.1,1.1-0.2
			c0.3-0.2,0.6-0.4,0.8-0.6c0.2-0.3,0.4-0.6,0.5-0.9c0.1-0.3,0.2-0.7,0.2-1.1c0-0.4-0.1-0.7-0.2-1.1C193.9,51.3,193.7,51,193.5,50.7
			z M192.4,53.2c-0.1,0.2-0.1,0.3-0.2,0.4c-0.1,0.1-0.2,0.2-0.4,0.3c-0.2,0.1-0.3,0.1-0.5,0.1c-0.2,0-0.4,0-0.5-0.1
			c-0.2-0.1-0.3-0.2-0.4-0.3c-0.1-0.1-0.2-0.3-0.3-0.4c-0.1-0.2-0.1-0.3-0.1-0.5c0-0.2,0-0.3,0.1-0.5c0.1-0.2,0.1-0.3,0.3-0.4
			c0.1-0.1,0.2-0.2,0.4-0.3c0.2-0.1,0.3-0.1,0.5-0.1c0.2,0,0.4,0,0.5,0.1c0.2,0.1,0.3,0.2,0.4,0.3c0.1,0.1,0.2,0.3,0.2,0.4
			c0.1,0.2,0.1,0.3,0.1,0.5C192.5,52.8,192.4,53,192.4,53.2z"/>
		<path class="st40" d="M186.6,50.6c-0.2-0.2-0.5-0.4-0.8-0.6c-0.3-0.1-0.7-0.2-1-0.2c-0.4,0-0.8,0.1-1.1,0.2
			c-0.3,0.1-0.6,0.3-0.9,0.6c-0.2,0.2-0.4,0.5-0.6,0.9c-0.1,0.4-0.2,0.7-0.2,1.2l0,2.6h1.8l0-2.9c0-0.5,0.4-0.9,0.9-0.9
			c0.5,0,0.8,0.4,0.9,0.8c0,0,0,2.9,0,2.9h1.8v-2.2c0-0.1,0-0.1,0-0.2v-0.2c0-0.5,0-0.9-0.1-1.2C187,51.2,186.8,50.9,186.6,50.6z"/>
		<path class="st40" d="M179.4,52.3c0,0.2,0,0.4-0.1,0.6c0,0.2-0.1,0.4-0.2,0.5c-0.1,0.1-0.3,0.3-0.4,0.3c-0.2,0.1-0.4,0.1-0.7,0.1
			c-0.3,0-0.5,0-0.7-0.1c-0.2-0.1-0.3-0.2-0.4-0.3c-0.1-0.1-0.2-0.3-0.2-0.5c-0.1-0.2-0.1-0.4-0.1-0.6v-4.6h-1.8v4.7
			c0,0.5,0.1,0.9,0.2,1.2c0.2,0.4,0.4,0.7,0.6,1c0.3,0.3,0.6,0.5,1,0.6c0.4,0.1,0.9,0.2,1.3,0.2c0.5,0,0.9-0.1,1.3-0.2
			c0.4-0.2,0.7-0.4,1-0.6c0.3-0.3,0.5-0.6,0.7-1c0.2-0.4,0.2-0.8,0.2-1.2l0-4.7h-1.8V52.3z"/>
	</g>
	<g>
		<path class="st40" d="M75.3,28.2c0-2.7,0.7-4.8,2.1-6.3c1.4-1.5,3.3-2.2,5.7-2.2s4.3,0.8,5.7,2.2c1.4,1.5,2.1,3.6,2.1,6.3v4.7
			c0,2.8-0.7,4.9-2.1,6.4c-1.4,1.5-3.3,2.2-5.7,2.2s-4.3-0.7-5.7-2.2c-1.4-1.5-2.1-3.6-2.1-6.4V28.2z M83,37.9
			c0.7,0,1.3-0.1,1.8-0.3c0.5-0.2,0.9-0.6,1.2-1c0.3-0.4,0.5-0.9,0.6-1.5s0.2-1.2,0.2-1.9V28c0-0.7-0.1-1.3-0.2-1.9
			c-0.1-0.6-0.4-1.1-0.7-1.5c-0.3-0.4-0.7-0.8-1.2-1c-0.5-0.2-1.1-0.4-1.7-0.4s-1.3,0.1-1.7,0.4c-0.5,0.3-0.9,0.6-1.2,1
			c-0.3,0.4-0.5,0.9-0.7,1.5c-0.1,0.6-0.2,1.2-0.2,1.9v5.2c0,0.7,0.1,1.3,0.2,1.9s0.3,1.1,0.6,1.5s0.7,0.7,1.2,1
			C81.7,37.8,82.3,37.9,83,37.9z"/>
		<path class="st40" d="M97.5,47.1h-3.8V26.2h3.8v2.2H98c0.4-0.8,1-1.5,1.7-1.9c0.8-0.5,1.7-0.7,2.9-0.7c0.9,0,1.7,0.2,2.5,0.5
			c0.8,0.3,1.5,0.8,2.1,1.5c0.6,0.6,1.1,1.4,1.4,2.4c0.3,0.9,0.5,2,0.5,3.2v0.5c0,1.2-0.2,2.3-0.5,3.2c-0.3,0.9-0.8,1.7-1.4,2.4
			c-0.6,0.7-1.3,1.1-2.1,1.5s-1.6,0.5-2.6,0.5c-0.7,0-1.3-0.1-1.8-0.2s-0.9-0.3-1.3-0.6c-0.4-0.2-0.7-0.5-0.9-0.8
			c-0.3-0.3-0.5-0.6-0.6-1h-0.5V47.1z M101.5,37.9c1.2,0,2.1-0.4,2.9-1.1c0.7-0.7,1.1-1.7,1.1-3v-0.4c0-1.3-0.4-2.3-1.1-3
			c-0.7-0.7-1.7-1.1-2.9-1.1s-2.1,0.4-2.9,1.1c-0.7,0.8-1.1,1.7-1.1,3v0.4c0,1.2,0.4,2.2,1.1,3C99.3,37.5,100.3,37.9,101.5,37.9z"/>
		<path class="st40" d="M116,34.9c0,0.4,0.1,0.8,0.3,1.2c0.2,0.4,0.4,0.7,0.8,1c0.3,0.3,0.7,0.5,1.1,0.6c0.4,0.2,0.9,0.2,1.4,0.2
			c0.9,0,1.7-0.2,2.2-0.5s0.9-0.7,1.1-1.2l3.2,1.8c-0.2,0.4-0.4,0.8-0.8,1.2c-0.3,0.4-0.7,0.8-1.2,1.1s-1.1,0.6-1.9,0.8
			c-0.7,0.2-1.6,0.3-2.6,0.3c-1.1,0-2.1-0.2-3.1-0.5s-1.7-0.9-2.4-1.6s-1.2-1.5-1.6-2.5c-0.4-1-0.6-2.1-0.6-3.3v-0.2
			c0-1.1,0.2-2.2,0.6-3.1c0.4-0.9,0.9-1.7,1.6-2.4s1.5-1.2,2.4-1.5s1.9-0.6,2.9-0.6c1.3,0,2.4,0.2,3.3,0.7c0.9,0.5,1.7,1,2.3,1.7
			c0.6,0.7,1,1.5,1.3,2.3s0.4,1.6,0.4,2.4v2H116z M119.6,29.2c-1,0-1.7,0.2-2.3,0.7c-0.6,0.5-1,1.1-1.2,1.7h7
			c-0.1-0.7-0.5-1.3-1.1-1.7C121.4,29.4,120.6,29.2,119.6,29.2z"/>
		<path class="st40" d="M133.7,41.1h-3.8V26.2h3.8v2.2h0.5c0.3-0.8,0.9-1.5,1.6-2c0.8-0.5,1.7-0.7,2.7-0.7c0.7,0,1.4,0.1,2,0.3
			c0.6,0.2,1.2,0.6,1.7,1.1c0.5,0.5,0.9,1.1,1.1,1.8c0.3,0.7,0.4,1.6,0.4,2.6v9.4H140v-8.5c0-1.1-0.3-1.9-0.8-2.5
			c-0.5-0.6-1.2-0.9-2.2-0.9c-1.1,0-2,0.4-2.5,1.1c-0.6,0.8-0.8,1.8-0.8,3V41.1z"/>
		<path class="st40" d="M152.2,41.1h-4v-21h4v8.6h0.9l5.6-8.6h4.5v0.2l-6.5,10.1v0.5l6.8,10.1v0.2h-4.6l-5.7-8.6h-0.9V41.1z"/>
		<path class="st40" d="M165.4,37.5h5v-7.7h-4.7v-3.6h8.5v11.3h4.3v3.6h-13.1V37.5z M175.1,21.8c0,0.4-0.1,0.8-0.2,1.1
			c-0.1,0.4-0.4,0.7-0.6,0.9s-0.6,0.4-0.9,0.6c-0.4,0.2-0.7,0.2-1.1,0.2c-0.4,0-0.8-0.1-1.1-0.2c-0.3-0.2-0.6-0.3-0.9-0.6
			s-0.5-0.5-0.6-0.9c-0.1-0.3-0.2-0.7-0.2-1.1c0-0.4,0.1-0.8,0.2-1.1c0.2-0.3,0.4-0.6,0.6-0.9c0.3-0.2,0.6-0.4,0.9-0.6
			c0.3-0.2,0.7-0.2,1.1-0.2c0.4,0,0.7,0.1,1.1,0.2c0.3,0.2,0.7,0.4,0.9,0.6c0.3,0.3,0.5,0.6,0.6,0.9C175.1,21,175.1,21.4,175.1,21.8
			z"/>
		<path class="st40" d="M194.8,37.4l0.7-11.3h3.5l-1,14.9h-6.5l-0.8-11.2h-0.7L189,41.1h-6.5l-1-14.9h3.5l0.7,11.3h0.7l0.7-11.3h6.2
			l0.7,11.3"/>
		<path class="st40" d="M201.9,37.5h5v-7.7h-4.7v-3.6h8.5v11.3h4.3v3.6h-13.1V37.5z M211.6,21.8c0,0.4-0.1,0.8-0.2,1.1
			c-0.1,0.4-0.4,0.7-0.6,0.9s-0.6,0.4-0.9,0.6c-0.4,0.2-0.7,0.2-1.1,0.2c-0.4,0-0.8-0.1-1.1-0.2c-0.3-0.2-0.6-0.3-0.9-0.6
			s-0.5-0.5-0.6-0.9c-0.1-0.3-0.2-0.7-0.2-1.1c0-0.4,0.1-0.8,0.2-1.1c0.2-0.3,0.4-0.6,0.6-0.9c0.3-0.2,0.6-0.4,0.9-0.6
			c0.3-0.2,0.7-0.2,1.1-0.2c0.4,0,0.7,0.1,1.1,0.2c0.3,0.2,0.7,0.4,0.9,0.6c0.3,0.3,0.5,0.6,0.6,0.9C211.5,21,211.6,21.4,211.6,21.8
			z"/>
	</g>
	<polygon class="st40" points="12.4,35.1 30.3,61.4 17.1,61.4 8.5,48.8 0,36.2 0,25.2 8.5,13 17.6,0 30.8,0 12.6,26.3 	"/>
	<polygon class="st40" points="41.6,19.5 32.2,19.5 26,28.6 25.9,32.5 32,41.6 41.8,41.6 47.9,32.5 47.9,28.6 	"/>
	<g>
		<rect x="43.2" y="12.4" class="st40" width="1.9" height="1.9"/>
		<rect x="51.2" y="23.7" class="st40" width="1.9" height="1.9"/>
		<rect x="50.7" y="36.2" class="st40" width="1.9" height="1.9"/>
		<rect x="42.5" y="46.7" class="st40" width="1.9" height="1.9"/>
		<rect x="28.7" y="46.7" class="st40" width="1.9" height="1.9"/>
		<rect x="20.8" y="35.6" class="st40" width="1.9" height="1.9"/>
		<rect x="21.2" y="23.1" class="st40" width="1.9" height="1.9"/>
		<rect x="29.4" y="12.4" class="st40" width="1.9" height="1.9"/>
		<rect x="43.2" y="12.4" class="st40" width="1.9" height="1.9"/>
	</g>
</g>
</svg>
