<?xml version="1.0" encoding="utf-8"?>
<!-- Generator: Adobe Illustrator 23.0.2, SVG Export Plug-In . SVG Version: 6.00 Build 0)  -->
<svg version="1.1" id="Layer_1" xmlns="http://www.w3.org/2000/svg" xmlns:xlink="http://www.w3.org/1999/xlink" x="0px" y="0px"
	 viewBox="0 0 139.7 117.7" style="enable-background:new 0 0 139.7 117.7;" xml:space="preserve">
<style type="text/css">
	.st0{fill:#1A1A1A;}
	.st1{display:none;}
	.st2{display:inline;fill:none;stroke:#E5E5E5;stroke-width:0.25;stroke-miterlimit:100;}
	.st3{display:inline;fill-rule:evenodd;clip-rule:evenodd;fill:none;stroke:#E5E5E5;stroke-width:0.25;stroke-miterlimit:100;}
	.st4{fill:none;stroke:#E5E5E5;stroke-width:0.25;stroke-miterlimit:100;}
	.st5{fill-rule:evenodd;clip-rule:evenodd;fill:none;stroke:#E5E5E5;stroke-width:0.25;stroke-miterlimit:100;}
	.st6{fill-rule:evenodd;clip-rule:evenodd;fill:#3843D0;}
	.st7{fill:none;stroke:#FFFFFF;stroke-width:0.25;stroke-miterlimit:100;}
	.st8{fill-rule:evenodd;clip-rule:evenodd;fill:none;stroke:#FFFFFF;stroke-width:0.25;stroke-miterlimit:100;}
	.st9{fill-rule:evenodd;clip-rule:evenodd;fill:#20BF55;stroke:#A55E00;stroke-width:3.7;stroke-miterlimit:10;}
	.st10{fill-rule:evenodd;clip-rule:evenodd;fill:#20BF55;}
	.st11{fill:#333333;}
	.st12{fill-rule:evenodd;clip-rule:evenodd;fill:#333333;}
	.st13{fill:#3843D0;}
	.st14{fill-rule:evenodd;clip-rule:evenodd;fill:none;stroke:#3843D0;stroke-width:3.7;stroke-miterlimit:10;}
	.st15{fill-rule:evenodd;clip-rule:evenodd;fill:#E5ECAA;}
	.st16{fill-rule:evenodd;clip-rule:evenodd;fill:none;stroke:#A55E00;stroke-width:3.7;stroke-miterlimit:10;}
	.st17{fill-rule:evenodd;clip-rule:evenodd;fill:#A55E00;}
	.st18{fill-rule:evenodd;clip-rule:evenodd;fill:#FFFFFF;}
	.st19{display:inline;fill:none;stroke:#FFFFFF;stroke-width:0.25;stroke-miterlimit:100;}
	.st20{display:inline;fill-rule:evenodd;clip-rule:evenodd;fill:none;stroke:#FFFFFF;stroke-width:0.25;stroke-miterlimit:100;}
	.st21{fill-rule:evenodd;clip-rule:evenodd;fill:#BCF33A;}
	.st22{fill-rule:evenodd;clip-rule:evenodd;fill:#4151CF;}
	.st23{fill:none;stroke:#3843D0;stroke-width:3.7;stroke-miterlimit:10;}
	.st24{display:inline;fill:none;stroke:#000000;stroke-width:3.7;stroke-miterlimit:10;}
	.st25{fill:#00C444;}
	.st26{fill-rule:evenodd;clip-rule:evenodd;fill:#00C444;stroke:#000000;stroke-width:3.7;stroke-miterlimit:10;}
	.st27{fill-rule:evenodd;clip-rule:evenodd;fill:none;stroke:#000000;stroke-width:3.7;stroke-miterlimit:10;}
	.st28{fill:none;stroke:#000000;stroke-width:3.7;stroke-miterlimit:10;}
	.st29{fill-rule:evenodd;clip-rule:evenodd;fill:#8CC605;}
	.st30{fill-rule:evenodd;clip-rule:evenodd;}
	.st31{fill-rule:evenodd;clip-rule:evenodd;fill:#79D5C5;}
	.st32{fill-rule:evenodd;clip-rule:evenodd;fill:#00C444;}
	.st33{fill:#6ECFBD;}
	.st34{fill:none;stroke:#6ECFBD;stroke-width:3.7;stroke-miterlimit:10;}
	.st35{display:inline;}
	.st36{fill:#8CC605;}
	.st37{fill:#A55E00;}
	.st38{fill:#E5ECAA;}
	.st39{display:inline;fill:#333333;}
	.st40{fill:#FFFFFF;}
	.st41{display:inline;fill:#6ECFBD;}
	.st42{fill-rule:evenodd;clip-rule:evenodd;fill:none;stroke:#6ECFBD;stroke-width:3.7;stroke-miterlimit:10;}
</style>
<g>
	<g>
		<polygon class="st0" points="51.6,35.1 69.4,61.4 56.3,61.4 47.7,48.8 39.1,36.2 39.1,25.2 47.7,13 56.8,0 70,0 51.7,26.3 		"/>
		<path class="st33" d="M82.9,0H70L51.7,26.3l-0.1,8.8l17.9,26.3h14l17.1-25.2v-11L82.9,0z M82.4,12.6h1.9v1.9h-1.9V12.6z
			 M68.6,12.6h1.9v1.9h-1.9V12.6z M61.9,37.7h-1.9v-1.9h1.9V37.7z M61.9,25.2h-1.9v-1.9h1.9V25.2z M69.8,48.8h-1.9v-1.9h1.9V48.8z
			 M83.6,48.8h-1.9v-1.9h1.9V48.8z M87.1,32.7l-6.1,9h-9.8l-6.1-9l0.1-4l6.3-9h9.4l6.3,9V32.7z M92.2,38.3h-1.9v-1.9h1.9V38.3z
			 M92.2,25.8h-1.9v-1.9h1.9V25.8z"/>
	</g>
	<g>
		<path class="st0" d="M41.7,106.9h2.8c0.3,0,0.7,0,1,0.1c0.3,0.1,0.6,0.2,0.8,0.4c0.2,0.2,0.4,0.4,0.5,0.6c0.1,0.3,0.2,0.6,0.2,0.9
			c0,0.5-0.1,0.8-0.4,1.1c-0.3,0.3-0.6,0.5-1,0.6v0c0.2,0,0.5,0.1,0.7,0.2c0.2,0.1,0.4,0.3,0.6,0.4c0.2,0.2,0.3,0.4,0.4,0.6
			c0.1,0.2,0.1,0.5,0.1,0.8c0,0.4-0.1,0.7-0.2,1c-0.1,0.3-0.4,0.5-0.6,0.7c-0.3,0.2-0.6,0.3-0.9,0.4c-0.3,0.1-0.7,0.1-1.1,0.1h-2.8
			V106.9z M42.8,110.2h1.5c0.2,0,0.4,0,0.6-0.1c0.2,0,0.3-0.1,0.5-0.2c0.1-0.1,0.2-0.2,0.3-0.4c0.1-0.2,0.1-0.3,0.1-0.6
			c0-0.3-0.1-0.6-0.3-0.8c-0.2-0.2-0.5-0.4-1-0.4h-1.7V110.2z M42.8,114h1.6c0.2,0,0.4,0,0.6-0.1c0.2,0,0.4-0.1,0.6-0.2
			c0.2-0.1,0.3-0.2,0.4-0.4c0.1-0.2,0.2-0.4,0.2-0.7c0-0.5-0.2-0.8-0.5-1.1c-0.3-0.2-0.7-0.4-1.3-0.4h-1.6V114z"/>
		<path class="st0" d="M48,109.5h1.2l1.6,4.2h0l1.5-4.2h1.1l-2.6,6.6c-0.1,0.2-0.2,0.5-0.3,0.6c-0.1,0.2-0.2,0.4-0.4,0.5
			c-0.1,0.1-0.3,0.2-0.5,0.3s-0.4,0.1-0.7,0.1c-0.2,0-0.3,0-0.5,0s-0.3-0.1-0.4-0.1l0.1-0.9c0.2,0.1,0.4,0.1,0.6,0.1
			c0.2,0,0.3,0,0.4-0.1c0.1,0,0.2-0.1,0.3-0.2c0.1-0.1,0.1-0.2,0.2-0.3c0.1-0.1,0.1-0.2,0.2-0.4l0.3-0.9L48,109.5z"/>
		<rect x="96.2" y="106.9" class="st0" width="1.8" height="8.1"/>
		<path class="st0" d="M94.7,110.2c-0.2-0.2-0.5-0.4-0.8-0.6c-0.3-0.1-0.7-0.2-1.1-0.2c-0.4,0-0.8,0.1-1.1,0.2
			c-0.4,0.1-0.7,0.3-0.9,0.6c-0.3,0.2-0.5,0.5-0.6,0.9c-0.2,0.4-0.2,0.7-0.2,1.2c0,0.4,0.1,0.9,0.2,1.2c0.2,0.3,0.4,0.6,0.6,0.9
			c0.3,0.2,0.6,0.4,0.9,0.5c0.4,0.1,0.7,0.2,1.1,0.2c0.5,0,1-0.1,1.4-0.3c0.4-0.2,0.7-0.5,1-0.8l-1.2-0.8c-0.1,0.2-0.3,0.3-0.5,0.4
			c-0.2,0.1-0.4,0.2-0.7,0.2c-0.2,0-0.3,0-0.5-0.1c-0.1-0.1-0.3-0.1-0.4-0.2c-0.1-0.1-0.2-0.2-0.3-0.3c-0.1-0.1-0.1-0.3-0.1-0.4
			l3.9,0c0-0.1,0-0.1,0-0.2v-0.2c0-0.5-0.1-0.9-0.2-1.2C95.1,110.8,94.9,110.5,94.7,110.2z M91.6,111.7c0-0.1,0-0.3,0.1-0.4
			c0.1-0.1,0.2-0.2,0.3-0.3c0.1-0.1,0.2-0.2,0.4-0.2c0.1-0.1,0.3-0.1,0.5-0.1c0.3,0,0.6,0.1,0.8,0.3c0.2,0.2,0.3,0.4,0.3,0.7H91.6z"
			/>
		<path class="st0" d="M88.7,110.3c-0.2-0.3-0.5-0.5-0.8-0.6c-0.3-0.1-0.7-0.2-1-0.2c-0.4,0-0.7,0.1-1,0.2c-0.3,0.1-0.5,0.3-0.6,0.5
			h0l0-3.3h-1.8v8.1h1.6l0-0.7h0c0.2,0.3,0.4,0.5,0.7,0.6c0.3,0.1,0.7,0.2,1,0.2c0.4,0,0.8-0.1,1.1-0.2c0.3-0.2,0.6-0.4,0.8-0.6
			c0.2-0.3,0.4-0.6,0.5-0.9c0.1-0.3,0.2-0.7,0.2-1.1c0-0.4-0.1-0.7-0.2-1.1C89.1,110.9,88.9,110.6,88.7,110.3z M87.6,112.8
			c-0.1,0.2-0.1,0.3-0.2,0.4c-0.1,0.1-0.2,0.2-0.4,0.3c-0.2,0.1-0.3,0.1-0.5,0.1c-0.2,0-0.4,0-0.5-0.1c-0.2-0.1-0.3-0.2-0.4-0.3
			c-0.1-0.1-0.2-0.3-0.3-0.4c-0.1-0.2-0.1-0.3-0.1-0.5c0-0.2,0-0.3,0.1-0.5c0.1-0.2,0.1-0.3,0.3-0.4c0.1-0.1,0.2-0.2,0.4-0.3
			c0.2-0.1,0.3-0.1,0.5-0.1c0.2,0,0.4,0,0.5,0.1c0.2,0.1,0.3,0.2,0.4,0.3c0.1,0.1,0.2,0.3,0.2,0.4c0.1,0.2,0.1,0.3,0.1,0.5
			C87.7,112.4,87.7,112.6,87.6,112.8z"/>
		<path class="st0" d="M82.4,111c-0.1-0.4-0.2-0.6-0.4-0.9c-0.2-0.2-0.4-0.4-0.8-0.5c-0.3-0.1-0.7-0.2-1.1-0.2
			c-0.4,0-0.9,0.1-1.3,0.2c-0.4,0.1-0.8,0.4-1.1,0.7l0.9,1c0.2-0.2,0.4-0.3,0.6-0.4c0.2-0.1,0.5-0.2,0.7-0.2c0.3,0,0.5,0.1,0.7,0.2
			c0.2,0.1,0.3,0.3,0.3,0.6v0.1c-0.4,0-0.8,0-1.2,0.1c-0.4,0-0.8,0.1-1.1,0.3c-0.3,0.1-0.6,0.3-0.8,0.5c-0.2,0.2-0.3,0.5-0.3,0.9
			c0,0.3,0.1,0.6,0.2,0.8c0.1,0.2,0.3,0.4,0.5,0.5c0.2,0.1,0.4,0.2,0.6,0.3c0.2,0.1,0.4,0.1,0.7,0.1c0.3,0,0.6-0.1,0.9-0.2
			c0.3-0.1,0.5-0.3,0.6-0.5h0l0,0.6h1.6l0-2.7C82.5,111.8,82.5,111.4,82.4,111z M80.9,112.8c0,0.3-0.1,0.6-0.3,0.8
			c-0.2,0.2-0.5,0.3-0.8,0.3c-0.1,0-0.2,0-0.3,0c-0.1,0-0.2,0-0.2-0.1c-0.1,0-0.1-0.1-0.2-0.2c0-0.1-0.1-0.2-0.1-0.3
			c0-0.2,0.1-0.3,0.2-0.4c0.1-0.1,0.2-0.2,0.4-0.2c0.2-0.1,0.3-0.1,0.5-0.1c0.2,0,0.4,0,0.6,0l0.2,0L80.9,112.8z"/>
		<path class="st0" d="M76.4,110.3c-0.2-0.3-0.5-0.5-0.8-0.6c-0.3-0.1-0.7-0.2-1-0.2c-0.4,0-0.7,0.1-1,0.2c-0.3,0.1-0.5,0.3-0.6,0.5
			h0l0-3.3l-1.8,0v8.1h1.6l0-0.7h0c0.2,0.3,0.4,0.5,0.7,0.6c0.3,0.1,0.7,0.2,1,0.2c0.4,0,0.8-0.1,1.1-0.2c0.3-0.2,0.6-0.4,0.8-0.6
			c0.2-0.3,0.4-0.6,0.5-0.9c0.1-0.3,0.2-0.7,0.2-1.1c0-0.4-0.1-0.7-0.2-1.1C76.8,110.9,76.6,110.6,76.4,110.3z M75.3,112.8
			c-0.1,0.2-0.1,0.3-0.2,0.4c-0.1,0.1-0.2,0.2-0.4,0.3c-0.2,0.1-0.3,0.1-0.5,0.1c-0.2,0-0.4,0-0.5-0.1c-0.2-0.1-0.3-0.2-0.4-0.3
			c-0.1-0.1-0.2-0.3-0.3-0.4c-0.1-0.2-0.1-0.3-0.1-0.5c0-0.2,0-0.3,0.1-0.5c0.1-0.2,0.1-0.3,0.3-0.4c0.1-0.1,0.2-0.2,0.4-0.3
			c0.2-0.1,0.3-0.1,0.5-0.1c0.2,0,0.4,0,0.5,0.1c0.2,0.1,0.3,0.2,0.4,0.3c0.1,0.1,0.2,0.3,0.2,0.4c0.1,0.2,0.1,0.3,0.1,0.5
			C75.4,112.4,75.3,112.6,75.3,112.8z"/>
		<path class="st0" d="M69.5,110.2c-0.2-0.2-0.5-0.4-0.8-0.6c-0.3-0.1-0.7-0.2-1-0.2c-0.4,0-0.8,0.1-1.1,0.2
			c-0.3,0.1-0.6,0.3-0.9,0.6c-0.2,0.2-0.4,0.5-0.6,0.9c-0.1,0.4-0.2,0.7-0.2,1.2l0,2.6h1.8l0-2.9c0-0.5,0.4-0.9,0.9-0.9
			c0.5,0,0.8,0.4,0.9,0.8c0,0,0,2.9,0,2.9h1.8v-2.2c0-0.1,0-0.1,0-0.2v-0.2c0-0.5,0-0.9-0.1-1.2C69.9,110.8,69.7,110.5,69.5,110.2z"
			/>
		<path class="st0" d="M62.3,111.9c0,0.2,0,0.4-0.1,0.6c0,0.2-0.1,0.4-0.2,0.5c-0.1,0.1-0.3,0.3-0.4,0.3c-0.2,0.1-0.4,0.1-0.7,0.1
			c-0.3,0-0.5,0-0.7-0.1c-0.2-0.1-0.3-0.2-0.4-0.3c-0.1-0.1-0.2-0.3-0.2-0.5c-0.1-0.2-0.1-0.4-0.1-0.6v-4.6h-1.8v4.7
			c0,0.5,0.1,0.9,0.2,1.2c0.2,0.4,0.4,0.7,0.6,1c0.3,0.3,0.6,0.5,1,0.6c0.4,0.1,0.9,0.2,1.3,0.2c0.5,0,0.9-0.1,1.3-0.2
			c0.4-0.2,0.7-0.4,1-0.6c0.3-0.3,0.5-0.6,0.7-1c0.2-0.4,0.2-0.8,0.2-1.2l0-4.7h-1.8V111.9z"/>
	</g>
	<g>
		<path class="st0" d="M0,87.8c0-2.7,0.7-4.8,2.1-6.3c1.4-1.5,3.3-2.2,5.7-2.2s4.3,0.8,5.7,2.2c1.4,1.5,2.1,3.6,2.1,6.3v4.7
			c0,2.8-0.7,4.9-2.1,6.4c-1.4,1.5-3.3,2.2-5.7,2.2s-4.3-0.7-5.7-2.2C0.7,97.4,0,95.3,0,92.5V87.8z M7.7,97.5c0.7,0,1.3-0.1,1.8-0.3
			c0.5-0.2,0.9-0.6,1.2-1c0.3-0.4,0.5-0.9,0.6-1.5s0.2-1.2,0.2-1.9v-5.2c0-0.7-0.1-1.3-0.2-1.9c-0.1-0.6-0.4-1.1-0.7-1.5
			c-0.3-0.4-0.7-0.8-1.2-1C9,83,8.4,82.9,7.7,82.9S6.5,83,6,83.2c-0.5,0.3-0.9,0.6-1.2,1c-0.3,0.4-0.5,0.9-0.7,1.5
			C4,86.3,4,86.9,4,87.6v5.2c0,0.7,0.1,1.3,0.2,1.9s0.3,1.1,0.6,1.5s0.7,0.7,1.2,1C6.4,97.4,7,97.5,7.7,97.5z"/>
		<path class="st0" d="M22.2,106.7h-3.8V85.8h3.8V88h0.5c0.4-0.8,1-1.5,1.7-1.9c0.8-0.5,1.7-0.7,2.9-0.7c0.9,0,1.7,0.2,2.5,0.5
			c0.8,0.3,1.5,0.8,2.1,1.5c0.6,0.6,1.1,1.4,1.4,2.4c0.3,0.9,0.5,2,0.5,3.2v0.5c0,1.2-0.2,2.3-0.5,3.2c-0.3,0.9-0.8,1.7-1.4,2.4
			c-0.6,0.7-1.3,1.1-2.1,1.5s-1.6,0.5-2.6,0.5c-0.7,0-1.3-0.1-1.8-0.2s-0.9-0.3-1.3-0.6c-0.4-0.2-0.7-0.5-0.9-0.8
			c-0.3-0.3-0.5-0.6-0.6-1h-0.5V106.7z M26.2,97.5c1.2,0,2.1-0.4,2.9-1.1c0.7-0.7,1.1-1.7,1.1-3v-0.4c0-1.3-0.4-2.3-1.1-3
			c-0.7-0.7-1.7-1.1-2.9-1.1s-2.1,0.4-2.9,1.1c-0.7,0.8-1.1,1.7-1.1,3v0.4c0,1.2,0.4,2.2,1.1,3C24,97.1,25,97.5,26.2,97.5z"/>
		<path class="st0" d="M40.7,94.5c0,0.4,0.1,0.8,0.3,1.2c0.2,0.4,0.4,0.7,0.8,1c0.3,0.3,0.7,0.5,1.1,0.6c0.4,0.2,0.9,0.2,1.4,0.2
			c0.9,0,1.7-0.2,2.2-0.5s0.9-0.7,1.1-1.2l3.2,1.8c-0.2,0.4-0.4,0.8-0.8,1.2c-0.3,0.4-0.7,0.8-1.2,1.1s-1.1,0.6-1.9,0.8
			c-0.7,0.2-1.6,0.3-2.6,0.3c-1.1,0-2.1-0.2-3.1-0.5S39.6,99.7,39,99s-1.2-1.5-1.6-2.5c-0.4-1-0.6-2.1-0.6-3.3V93
			c0-1.1,0.2-2.2,0.6-3.1c0.4-0.9,0.9-1.7,1.6-2.4s1.5-1.2,2.4-1.5s1.9-0.6,2.9-0.6c1.3,0,2.4,0.2,3.3,0.7c0.9,0.5,1.7,1,2.3,1.7
			c0.6,0.7,1,1.5,1.3,2.3s0.4,1.6,0.4,2.4v2H40.7z M44.3,88.8c-1,0-1.7,0.2-2.3,0.7c-0.6,0.5-1,1.1-1.2,1.7h7
			c-0.1-0.7-0.5-1.3-1.1-1.7C46.1,89,45.3,88.8,44.3,88.8z"/>
		<path class="st0" d="M58.4,100.7h-3.8V85.8h3.8V88h0.5c0.3-0.8,0.9-1.5,1.6-2c0.8-0.5,1.7-0.7,2.7-0.7c0.7,0,1.4,0.1,2,0.3
			c0.6,0.2,1.2,0.6,1.7,1.1c0.5,0.5,0.9,1.1,1.1,1.8c0.3,0.7,0.4,1.6,0.4,2.6v9.4h-3.8v-8.5c0-1.1-0.3-1.9-0.8-2.5
			c-0.5-0.6-1.2-0.9-2.2-0.9c-1.1,0-2,0.4-2.5,1.1c-0.6,0.8-0.8,1.8-0.8,3V100.7z"/>
		<path class="st0" d="M76.9,100.7h-4v-21h4v8.6h0.9l5.6-8.6h4.5v0.2l-6.5,10.1v0.5l6.8,10.1v0.2h-4.6l-5.7-8.6h-0.9V100.7z"/>
		<path class="st0" d="M90.1,97.1h5v-7.7h-4.7v-3.6h8.5v11.3h4.3v3.6H90.1V97.1z M99.8,81.4c0,0.4-0.1,0.8-0.2,1.1
			c-0.1,0.4-0.4,0.7-0.6,0.9s-0.6,0.4-0.9,0.6c-0.4,0.2-0.7,0.2-1.1,0.2c-0.4,0-0.8-0.1-1.1-0.2c-0.3-0.2-0.6-0.3-0.9-0.6
			s-0.5-0.5-0.6-0.9c-0.1-0.3-0.2-0.7-0.2-1.1c0-0.4,0.1-0.8,0.2-1.1c0.2-0.3,0.4-0.6,0.6-0.9c0.3-0.2,0.6-0.4,0.9-0.6
			c0.3-0.2,0.7-0.2,1.1-0.2c0.4,0,0.7,0.1,1.1,0.2c0.3,0.2,0.7,0.4,0.9,0.6c0.3,0.3,0.5,0.6,0.6,0.9C99.7,80.6,99.8,81,99.8,81.4z"
			/>
		<path class="st0" d="M119.5,97l0.7-11.3h3.5l-1,14.9h-6.5l-0.8-11.2h-0.7l-0.8,11.2h-6.5l-1-14.9h3.5l0.7,11.3h0.7l0.7-11.3h6.2
			l0.7,11.3"/>
		<path class="st0" d="M126.6,97.1h5v-7.7h-4.7v-3.6h8.5v11.3h4.3v3.6h-13.1V97.1z M136.3,81.4c0,0.4-0.1,0.8-0.2,1.1
			c-0.1,0.4-0.4,0.7-0.6,0.9s-0.6,0.4-0.9,0.6c-0.4,0.2-0.7,0.2-1.1,0.2c-0.4,0-0.8-0.1-1.1-0.2c-0.3-0.2-0.6-0.3-0.9-0.6
			s-0.5-0.5-0.6-0.9c-0.1-0.3-0.2-0.7-0.2-1.1c0-0.4,0.1-0.8,0.2-1.1c0.2-0.3,0.4-0.6,0.6-0.9c0.3-0.2,0.6-0.4,0.9-0.6
			c0.3-0.2,0.7-0.2,1.1-0.2c0.4,0,0.7,0.1,1.1,0.2c0.3,0.2,0.7,0.4,0.9,0.6c0.3,0.3,0.5,0.6,0.6,0.9C136.2,80.6,136.3,81,136.3,81.4
			z"/>
	</g>
</g>
</svg>
