<?xml version="1.0" encoding="utf-8"?>
<!-- Generator: Adobe Illustrator 23.0.2, SVG Export Plug-In . SVG Version: 6.00 Build 0)  -->
<svg version="1.1" id="Layer_1" xmlns="http://www.w3.org/2000/svg" xmlns:xlink="http://www.w3.org/1999/xlink" x="0px" y="0px"
	 viewBox="0 0 61.4 61.4" style="enable-background:new 0 0 61.4 61.4;" xml:space="preserve">
<style type="text/css">
	.st0{fill:#1A1A1A;}
	.st1{display:none;}
	.st2{display:inline;fill:none;stroke:#E5E5E5;stroke-width:0.25;stroke-miterlimit:100;}
	.st3{display:inline;fill-rule:evenodd;clip-rule:evenodd;fill:none;stroke:#E5E5E5;stroke-width:0.25;stroke-miterlimit:100;}
	.st4{fill:none;stroke:#E5E5E5;stroke-width:0.25;stroke-miterlimit:100;}
	.st5{fill-rule:evenodd;clip-rule:evenodd;fill:none;stroke:#E5E5E5;stroke-width:0.25;stroke-miterlimit:100;}
	.st6{fill-rule:evenodd;clip-rule:evenodd;fill:#3843D0;}
	.st7{fill:none;stroke:#FFFFFF;stroke-width:0.25;stroke-miterlimit:100;}
	.st8{fill-rule:evenodd;clip-rule:evenodd;fill:none;stroke:#FFFFFF;stroke-width:0.25;stroke-miterlimit:100;}
	.st9{fill-rule:evenodd;clip-rule:evenodd;fill:#20BF55;stroke:#A55E00;stroke-width:3.7;stroke-miterlimit:10;}
	.st10{fill-rule:evenodd;clip-rule:evenodd;fill:#20BF55;}
	.st11{fill:#333333;}
	.st12{fill-rule:evenodd;clip-rule:evenodd;fill:#333333;}
	.st13{fill:#3843D0;}
	.st14{fill-rule:evenodd;clip-rule:evenodd;fill:none;stroke:#3843D0;stroke-width:3.7;stroke-miterlimit:10;}
	.st15{fill-rule:evenodd;clip-rule:evenodd;fill:#E5ECAA;}
	.st16{fill-rule:evenodd;clip-rule:evenodd;fill:none;stroke:#A55E00;stroke-width:3.7;stroke-miterlimit:10;}
	.st17{fill-rule:evenodd;clip-rule:evenodd;fill:#A55E00;}
	.st18{fill-rule:evenodd;clip-rule:evenodd;fill:#FFFFFF;}
	.st19{display:inline;fill:none;stroke:#FFFFFF;stroke-width:0.25;stroke-miterlimit:100;}
	.st20{display:inline;fill-rule:evenodd;clip-rule:evenodd;fill:none;stroke:#FFFFFF;stroke-width:0.25;stroke-miterlimit:100;}
	.st21{fill-rule:evenodd;clip-rule:evenodd;fill:#BCF33A;}
	.st22{fill-rule:evenodd;clip-rule:evenodd;fill:#4151CF;}
	.st23{fill:none;stroke:#3843D0;stroke-width:3.7;stroke-miterlimit:10;}
	.st24{display:inline;fill:none;stroke:#000000;stroke-width:3.7;stroke-miterlimit:10;}
	.st25{fill:#00C444;}
	.st26{fill-rule:evenodd;clip-rule:evenodd;fill:#00C444;stroke:#000000;stroke-width:3.7;stroke-miterlimit:10;}
	.st27{fill-rule:evenodd;clip-rule:evenodd;fill:none;stroke:#000000;stroke-width:3.7;stroke-miterlimit:10;}
	.st28{fill:none;stroke:#000000;stroke-width:3.7;stroke-miterlimit:10;}
	.st29{fill-rule:evenodd;clip-rule:evenodd;fill:#8CC605;}
	.st30{fill-rule:evenodd;clip-rule:evenodd;}
	.st31{fill-rule:evenodd;clip-rule:evenodd;fill:#79D5C5;}
	.st32{fill-rule:evenodd;clip-rule:evenodd;fill:#00C444;}
	.st33{fill:#6ECFBD;}
	.st34{fill:none;stroke:#6ECFBD;stroke-width:3.7;stroke-miterlimit:10;}
	.st35{display:inline;}
	.st36{fill:#8CC605;}
	.st37{fill:#A55E00;}
	.st38{fill:#E5ECAA;}
	.st39{display:inline;fill:#333333;}
	.st40{fill:#FFFFFF;}
	.st41{display:inline;fill:#6ECFBD;}
	.st42{fill-rule:evenodd;clip-rule:evenodd;fill:none;stroke:#6ECFBD;stroke-width:3.7;stroke-miterlimit:10;}
</style>
<g>
	<polygon class="st0" points="12.4,35.1 30.3,61.4 17.1,61.4 8.5,48.8 0,36.2 0,25.2 8.5,13 17.6,0 30.8,0 12.6,26.3 	"/>
	<path class="st33" d="M43.8,0H30.8L12.6,26.3l-0.1,8.8l17.9,26.3h14l17.1-25.2v-11L43.8,0z M43.2,12.6h1.9v1.9h-1.9V12.6z
		 M29.4,12.6h1.9v1.9h-1.9V12.6z M22.7,37.7h-1.9v-1.9h1.9V37.7z M22.7,25.2h-1.9v-1.9h1.9V25.2z M30.6,48.8h-1.9v-1.9h1.9V48.8z
		 M44.4,48.8h-1.9v-1.9h1.9V48.8z M47.9,32.7l-6.1,9H32l-6.1-9l0.1-4l6.3-9h9.4l6.3,9V32.7z M53.1,38.3h-1.9v-1.9h1.9V38.3z
		 M53.1,25.8h-1.9v-1.9h1.9V25.8z"/>
</g>
</svg>
