<?xml version="1.0" encoding="utf-8"?>
<!-- Generator: Adobe Illustrator 23.0.2, SVG Export Plug-In . SVG Version: 6.00 Build 0)  -->
<svg version="1.1" id="Layer_1" xmlns="http://www.w3.org/2000/svg" xmlns:xlink="http://www.w3.org/1999/xlink" x="0px" y="0px"
	 viewBox="0 0 214.8 61.4" style="enable-background:new 0 0 214.8 61.4;" xml:space="preserve">
<style type="text/css">
	.st0{fill:#1A1A1A;}
	.st1{display:none;}
	.st2{display:inline;fill:none;stroke:#E5E5E5;stroke-width:0.25;stroke-miterlimit:100;}
	.st3{display:inline;fill-rule:evenodd;clip-rule:evenodd;fill:none;stroke:#E5E5E5;stroke-width:0.25;stroke-miterlimit:100;}
	.st4{fill:none;stroke:#E5E5E5;stroke-width:0.25;stroke-miterlimit:100;}
	.st5{fill-rule:evenodd;clip-rule:evenodd;fill:none;stroke:#E5E5E5;stroke-width:0.25;stroke-miterlimit:100;}
	.st6{fill-rule:evenodd;clip-rule:evenodd;fill:#3843D0;}
	.st7{fill:none;stroke:#FFFFFF;stroke-width:0.25;stroke-miterlimit:100;}
	.st8{fill-rule:evenodd;clip-rule:evenodd;fill:none;stroke:#FFFFFF;stroke-width:0.25;stroke-miterlimit:100;}
	.st9{fill-rule:evenodd;clip-rule:evenodd;fill:#20BF55;stroke:#A55E00;stroke-width:3.7;stroke-miterlimit:10;}
	.st10{fill-rule:evenodd;clip-rule:evenodd;fill:#20BF55;}
	.st11{fill:#333333;}
	.st12{fill-rule:evenodd;clip-rule:evenodd;fill:#333333;}
	.st13{fill:#3843D0;}
	.st14{fill-rule:evenodd;clip-rule:evenodd;fill:none;stroke:#3843D0;stroke-width:3.7;stroke-miterlimit:10;}
	.st15{fill-rule:evenodd;clip-rule:evenodd;fill:#E5ECAA;}
	.st16{fill-rule:evenodd;clip-rule:evenodd;fill:none;stroke:#A55E00;stroke-width:3.7;stroke-miterlimit:10;}
	.st17{fill-rule:evenodd;clip-rule:evenodd;fill:#A55E00;}
	.st18{fill-rule:evenodd;clip-rule:evenodd;fill:#FFFFFF;}
	.st19{display:inline;fill:none;stroke:#FFFFFF;stroke-width:0.25;stroke-miterlimit:100;}
	.st20{display:inline;fill-rule:evenodd;clip-rule:evenodd;fill:none;stroke:#FFFFFF;stroke-width:0.25;stroke-miterlimit:100;}
	.st21{fill-rule:evenodd;clip-rule:evenodd;fill:#BCF33A;}
	.st22{fill-rule:evenodd;clip-rule:evenodd;fill:#4151CF;}
	.st23{fill:none;stroke:#3843D0;stroke-width:3.7;stroke-miterlimit:10;}
	.st24{display:inline;fill:none;stroke:#000000;stroke-width:3.7;stroke-miterlimit:10;}
	.st25{fill:#00C444;}
	.st26{fill-rule:evenodd;clip-rule:evenodd;fill:#00C444;stroke:#000000;stroke-width:3.7;stroke-miterlimit:10;}
	.st27{fill-rule:evenodd;clip-rule:evenodd;fill:none;stroke:#000000;stroke-width:3.7;stroke-miterlimit:10;}
	.st28{fill:none;stroke:#000000;stroke-width:3.7;stroke-miterlimit:10;}
	.st29{fill-rule:evenodd;clip-rule:evenodd;fill:#8CC605;}
	.st30{fill-rule:evenodd;clip-rule:evenodd;}
	.st31{fill-rule:evenodd;clip-rule:evenodd;fill:#79D5C5;}
	.st32{fill-rule:evenodd;clip-rule:evenodd;fill:#00C444;}
	.st33{fill:#6ECFBD;}
	.st34{fill:none;stroke:#6ECFBD;stroke-width:3.7;stroke-miterlimit:10;}
	.st35{display:inline;}
	.st36{fill:#8CC605;}
	.st37{fill:#A55E00;}
	.st38{fill:#E5ECAA;}
	.st39{display:inline;fill:#333333;}
	.st40{fill:#FFFFFF;}
	.st41{display:inline;fill:#6ECFBD;}
	.st42{fill-rule:evenodd;clip-rule:evenodd;fill:none;stroke:#6ECFBD;stroke-width:3.7;stroke-miterlimit:10;}
</style>
<polygon class="st0" points="12.4,35.1 30.3,61.4 17.1,61.4 8.5,48.8 0,36.2 0,25.2 8.5,13 17.6,0 30.8,0 12.6,26.3 "/>
<path class="st33" d="M43.8,0H30.8L12.6,26.3l-0.1,8.8l17.9,26.3h14l17.1-25.2v-11L43.8,0z M43.2,12.6h1.9v1.9h-1.9V12.6z
	 M29.4,12.6h1.9v1.9h-1.9V12.6z M22.7,37.7h-1.9v-1.9h1.9V37.7z M22.7,25.2h-1.9v-1.9h1.9V25.2z M30.6,48.8h-1.9v-1.9h1.9V48.8z
	 M44.4,48.8h-1.9v-1.9h1.9V48.8z M47.9,32.7l-6.1,9H32l-6.1-9l0.1-4l6.3-9h9.4l6.3,9V32.7z M53.1,38.3h-1.9v-1.9h1.9V38.3z
	 M53.1,25.8h-1.9v-1.9h1.9V25.8z"/>
<g>
	<path class="st0" d="M158.5,47.3h2.8c0.3,0,0.7,0,1,0.1c0.3,0.1,0.6,0.2,0.8,0.4c0.2,0.2,0.4,0.4,0.5,0.6c0.1,0.3,0.2,0.6,0.2,0.9
		c0,0.5-0.1,0.8-0.4,1.1c-0.3,0.3-0.6,0.5-1,0.6v0c0.2,0,0.5,0.1,0.7,0.2c0.2,0.1,0.4,0.3,0.6,0.4c0.2,0.2,0.3,0.4,0.4,0.6
		c0.1,0.2,0.1,0.5,0.1,0.8c0,0.4-0.1,0.7-0.2,1c-0.1,0.3-0.4,0.5-0.6,0.7c-0.3,0.2-0.6,0.3-0.9,0.4c-0.3,0.1-0.7,0.1-1.1,0.1h-2.8
		V47.3z M159.6,50.7h1.5c0.2,0,0.4,0,0.6-0.1c0.2,0,0.3-0.1,0.5-0.2c0.1-0.1,0.2-0.2,0.3-0.4c0.1-0.2,0.1-0.3,0.1-0.6
		c0-0.3-0.1-0.6-0.3-0.8c-0.2-0.2-0.5-0.4-1-0.4h-1.7V50.7z M159.6,54.5h1.6c0.2,0,0.4,0,0.6-0.1c0.2,0,0.4-0.1,0.6-0.2
		c0.2-0.1,0.3-0.2,0.4-0.4c0.1-0.2,0.2-0.4,0.2-0.7c0-0.5-0.2-0.8-0.5-1.1c-0.3-0.2-0.7-0.4-1.3-0.4h-1.6V54.5z"/>
	<path class="st0" d="M164.8,50h1.2l1.6,4.2h0l1.5-4.2h1.1l-2.6,6.6c-0.1,0.2-0.2,0.5-0.3,0.6c-0.1,0.2-0.2,0.4-0.4,0.5
		c-0.1,0.1-0.3,0.2-0.5,0.3c-0.2,0.1-0.4,0.1-0.7,0.1c-0.2,0-0.3,0-0.5,0c-0.2,0-0.3-0.1-0.4-0.1l0.1-0.9c0.2,0.1,0.4,0.1,0.6,0.1
		c0.2,0,0.3,0,0.4-0.1c0.1,0,0.2-0.1,0.3-0.2c0.1-0.1,0.1-0.2,0.2-0.3c0.1-0.1,0.1-0.2,0.2-0.4l0.3-0.9L164.8,50z"/>
	<rect x="213" y="47.3" class="st0" width="1.8" height="8.1"/>
	<path class="st0" d="M211.5,50.7c-0.2-0.2-0.5-0.4-0.8-0.6c-0.3-0.1-0.7-0.2-1.1-0.2c-0.4,0-0.8,0.1-1.1,0.2
		c-0.4,0.1-0.7,0.3-0.9,0.6c-0.3,0.2-0.5,0.5-0.6,0.9c-0.2,0.4-0.2,0.7-0.2,1.2c0,0.4,0.1,0.9,0.2,1.2c0.2,0.3,0.4,0.6,0.6,0.9
		c0.3,0.2,0.6,0.4,0.9,0.5c0.4,0.1,0.7,0.2,1.1,0.2c0.5,0,1-0.1,1.4-0.3c0.4-0.2,0.7-0.5,1-0.8l-1.2-0.8c-0.1,0.2-0.3,0.3-0.5,0.4
		c-0.2,0.1-0.4,0.2-0.7,0.2c-0.2,0-0.3,0-0.5-0.1c-0.1-0.1-0.3-0.1-0.4-0.2c-0.1-0.1-0.2-0.2-0.3-0.3c-0.1-0.1-0.1-0.3-0.1-0.4
		l3.9,0c0-0.1,0-0.1,0-0.2v-0.2c0-0.5-0.1-0.9-0.2-1.2C211.9,51.2,211.7,50.9,211.5,50.7z M208.4,52.1c0-0.1,0-0.3,0.1-0.4
		c0.1-0.1,0.2-0.2,0.3-0.3c0.1-0.1,0.2-0.2,0.4-0.2c0.1-0.1,0.3-0.1,0.5-0.1c0.3,0,0.6,0.1,0.8,0.3c0.2,0.2,0.3,0.4,0.3,0.7H208.4z"
		/>
	<path class="st0" d="M205.5,50.8c-0.2-0.3-0.5-0.5-0.8-0.6c-0.3-0.1-0.7-0.2-1-0.2c-0.4,0-0.7,0.1-1,0.2c-0.3,0.1-0.5,0.3-0.6,0.5
		h0l0-3.3h-1.8v8.1h1.6l0-0.7h0c0.2,0.3,0.4,0.5,0.7,0.6c0.3,0.1,0.7,0.2,1,0.2c0.4,0,0.8-0.1,1.1-0.2c0.3-0.2,0.6-0.4,0.8-0.6
		c0.2-0.3,0.4-0.6,0.5-0.9c0.1-0.3,0.2-0.7,0.2-1.1c0-0.4-0.1-0.7-0.2-1.1C205.9,51.3,205.7,51,205.5,50.8z M204.4,53.2
		c-0.1,0.2-0.1,0.3-0.2,0.4c-0.1,0.1-0.2,0.2-0.4,0.3c-0.2,0.1-0.3,0.1-0.5,0.1c-0.2,0-0.4,0-0.5-0.1c-0.2-0.1-0.3-0.2-0.4-0.3
		c-0.1-0.1-0.2-0.3-0.3-0.4c-0.1-0.2-0.1-0.3-0.1-0.5c0-0.2,0-0.3,0.1-0.5c0.1-0.2,0.1-0.3,0.3-0.4c0.1-0.1,0.2-0.2,0.4-0.3
		c0.2-0.1,0.3-0.1,0.5-0.1c0.2,0,0.4,0,0.5,0.1c0.2,0.1,0.3,0.2,0.4,0.3c0.1,0.1,0.2,0.3,0.2,0.4c0.1,0.2,0.1,0.3,0.1,0.5
		C204.5,52.9,204.5,53.1,204.4,53.2z"/>
	<path class="st0" d="M199.2,51.5c-0.1-0.4-0.2-0.6-0.4-0.9c-0.2-0.2-0.4-0.4-0.8-0.5c-0.3-0.1-0.7-0.2-1.1-0.2
		c-0.4,0-0.9,0.1-1.3,0.2c-0.4,0.1-0.8,0.4-1.1,0.7l0.9,1c0.2-0.2,0.4-0.3,0.6-0.4c0.2-0.1,0.5-0.2,0.7-0.2c0.3,0,0.5,0.1,0.7,0.2
		c0.2,0.1,0.3,0.3,0.3,0.6v0.1c-0.4,0-0.8,0-1.2,0.1c-0.4,0-0.8,0.1-1.1,0.3c-0.3,0.1-0.6,0.3-0.8,0.5c-0.2,0.2-0.3,0.5-0.3,0.9
		c0,0.3,0.1,0.6,0.2,0.8c0.1,0.2,0.3,0.4,0.5,0.5c0.2,0.1,0.4,0.2,0.6,0.3c0.2,0.1,0.4,0.1,0.7,0.1c0.3,0,0.6-0.1,0.9-0.2
		c0.3-0.1,0.5-0.3,0.6-0.5h0l0,0.6h1.6l0-2.7C199.3,52.2,199.3,51.8,199.2,51.5z M197.7,53.3c0,0.3-0.1,0.6-0.3,0.8
		c-0.2,0.2-0.5,0.3-0.8,0.3c-0.1,0-0.2,0-0.3,0c-0.1,0-0.2,0-0.2-0.1c-0.1,0-0.1-0.1-0.2-0.2c0-0.1-0.1-0.2-0.1-0.3
		c0-0.2,0.1-0.3,0.2-0.4c0.1-0.1,0.2-0.2,0.4-0.2c0.2-0.1,0.3-0.1,0.5-0.1c0.2,0,0.4,0,0.6,0l0.2,0L197.7,53.3z"/>
	<path class="st0" d="M193.2,50.8c-0.2-0.3-0.5-0.5-0.8-0.6c-0.3-0.1-0.7-0.2-1-0.2c-0.4,0-0.7,0.1-1,0.2c-0.3,0.1-0.5,0.3-0.6,0.5
		h0l0-3.3l-1.8,0v8.1h1.6l0-0.7h0c0.2,0.3,0.4,0.5,0.7,0.6c0.3,0.1,0.7,0.2,1,0.2c0.4,0,0.8-0.1,1.1-0.2c0.3-0.2,0.6-0.4,0.8-0.6
		c0.2-0.3,0.4-0.6,0.5-0.9c0.1-0.3,0.2-0.7,0.2-1.1c0-0.4-0.1-0.7-0.2-1.1C193.6,51.3,193.4,51,193.2,50.8z M192.1,53.2
		c-0.1,0.2-0.1,0.3-0.2,0.4c-0.1,0.1-0.2,0.2-0.4,0.3c-0.2,0.1-0.3,0.1-0.5,0.1c-0.2,0-0.4,0-0.5-0.1c-0.2-0.1-0.3-0.2-0.4-0.3
		c-0.1-0.1-0.2-0.3-0.3-0.4c-0.1-0.2-0.1-0.3-0.1-0.5c0-0.2,0-0.3,0.1-0.5c0.1-0.2,0.1-0.3,0.3-0.4c0.1-0.1,0.2-0.2,0.4-0.3
		c0.2-0.1,0.3-0.1,0.5-0.1c0.2,0,0.4,0,0.5,0.1c0.2,0.1,0.3,0.2,0.4,0.3c0.1,0.1,0.2,0.3,0.2,0.4c0.1,0.2,0.1,0.3,0.1,0.5
		C192.2,52.9,192.2,53.1,192.1,53.2z"/>
	<path class="st0" d="M186.3,50.7c-0.2-0.2-0.5-0.4-0.8-0.6c-0.3-0.1-0.7-0.2-1-0.2c-0.4,0-0.8,0.1-1.1,0.2
		c-0.3,0.1-0.6,0.3-0.9,0.6c-0.2,0.2-0.4,0.5-0.6,0.9c-0.1,0.4-0.2,0.7-0.2,1.2l0,2.6h1.8l0-2.9c0-0.5,0.4-0.9,0.9-0.9
		c0.5,0,0.8,0.4,0.9,0.8c0,0,0,2.9,0,2.9h1.8v-2.2c0-0.1,0-0.1,0-0.2v-0.2c0-0.5,0-0.9-0.1-1.2C186.7,51.2,186.5,50.9,186.3,50.7z"
		/>
	<path class="st0" d="M179.1,52.4c0,0.2,0,0.4-0.1,0.6c0,0.2-0.1,0.4-0.2,0.5c-0.1,0.1-0.3,0.3-0.4,0.3c-0.2,0.1-0.4,0.1-0.7,0.1
		c-0.3,0-0.5,0-0.7-0.1c-0.2-0.1-0.3-0.2-0.4-0.3c-0.1-0.1-0.2-0.3-0.2-0.5c-0.1-0.2-0.1-0.4-0.1-0.6v-4.6h-1.8v4.7
		c0,0.5,0.1,0.9,0.2,1.2c0.2,0.4,0.4,0.7,0.6,1c0.3,0.3,0.6,0.5,1,0.6c0.4,0.1,0.9,0.2,1.3,0.2c0.5,0,0.9-0.1,1.3-0.2
		c0.4-0.2,0.7-0.4,1-0.6c0.3-0.3,0.5-0.6,0.7-1c0.2-0.4,0.2-0.8,0.2-1.2l0-4.7h-1.8V52.4z"/>
</g>
<g>
	<path class="st0" d="M75,28.3c0-2.7,0.7-4.8,2.1-6.3c1.4-1.5,3.3-2.2,5.7-2.2s4.3,0.8,5.7,2.2c1.4,1.5,2.1,3.6,2.1,6.3V33
		c0,2.8-0.7,4.9-2.1,6.4c-1.4,1.5-3.3,2.2-5.7,2.2s-4.3-0.7-5.7-2.2C75.7,37.9,75,35.8,75,33V28.3z M82.8,38c0.7,0,1.3-0.1,1.8-0.3
		c0.5-0.2,0.9-0.6,1.2-1c0.3-0.4,0.5-0.9,0.6-1.5s0.2-1.2,0.2-1.9v-5.2c0-0.7-0.1-1.3-0.2-1.9c-0.1-0.6-0.4-1.1-0.7-1.5
		c-0.3-0.4-0.7-0.8-1.2-1c-0.5-0.2-1.1-0.4-1.7-0.4s-1.3,0.1-1.7,0.4c-0.5,0.3-0.9,0.6-1.2,1c-0.3,0.4-0.5,0.9-0.7,1.5
		c-0.1,0.6-0.2,1.2-0.2,1.9v5.2c0,0.7,0.1,1.3,0.2,1.9s0.3,1.1,0.6,1.5s0.7,0.7,1.2,1C81.4,37.9,82,38,82.8,38z"/>
	<path class="st0" d="M97.2,47.2h-3.8V26.3h3.8v2.2h0.5c0.4-0.8,1-1.5,1.7-1.9c0.8-0.5,1.7-0.7,2.9-0.7c0.9,0,1.7,0.2,2.5,0.5
		c0.8,0.3,1.5,0.8,2.1,1.5c0.6,0.6,1.1,1.4,1.4,2.4c0.3,0.9,0.5,2,0.5,3.2V34c0,1.2-0.2,2.3-0.5,3.2c-0.3,0.9-0.8,1.7-1.4,2.4
		c-0.6,0.7-1.3,1.1-2.1,1.5s-1.6,0.5-2.6,0.5c-0.7,0-1.3-0.1-1.8-0.2s-0.9-0.3-1.3-0.6c-0.4-0.2-0.7-0.5-0.9-0.8
		c-0.3-0.3-0.5-0.6-0.6-1h-0.5V47.2z M101.2,38c1.2,0,2.1-0.4,2.9-1.1c0.7-0.7,1.1-1.7,1.1-3v-0.4c0-1.3-0.4-2.3-1.1-3
		c-0.7-0.7-1.7-1.1-2.9-1.1s-2.1,0.4-2.9,1.1c-0.7,0.8-1.1,1.7-1.1,3v0.4c0,1.2,0.4,2.2,1.1,3C99,37.6,100,38,101.2,38z"/>
	<path class="st0" d="M115.8,34.9c0,0.4,0.1,0.8,0.3,1.2c0.2,0.4,0.4,0.7,0.8,1c0.3,0.3,0.7,0.5,1.1,0.6c0.4,0.2,0.9,0.2,1.4,0.2
		c0.9,0,1.7-0.2,2.2-0.5s0.9-0.7,1.1-1.2l3.2,1.8c-0.2,0.4-0.4,0.8-0.8,1.2c-0.3,0.4-0.7,0.8-1.2,1.1s-1.1,0.6-1.9,0.8
		c-0.7,0.2-1.6,0.3-2.6,0.3c-1.1,0-2.1-0.2-3.1-0.5s-1.7-0.9-2.4-1.6s-1.2-1.5-1.6-2.5c-0.4-1-0.6-2.1-0.6-3.3v-0.2
		c0-1.1,0.2-2.2,0.6-3.1c0.4-0.9,0.9-1.7,1.6-2.4s1.5-1.2,2.4-1.5s1.9-0.6,2.9-0.6c1.3,0,2.4,0.2,3.3,0.7c0.9,0.5,1.7,1,2.3,1.7
		c0.6,0.7,1,1.5,1.3,2.3s0.4,1.6,0.4,2.4v2H115.8z M119.3,29.3c-1,0-1.7,0.2-2.3,0.7c-0.6,0.5-1,1.1-1.2,1.7h7
		c-0.1-0.7-0.5-1.3-1.1-1.7C121.1,29.5,120.3,29.3,119.3,29.3z"/>
	<path class="st0" d="M133.4,41.2h-3.8V26.3h3.8v2.2h0.5c0.3-0.8,0.9-1.5,1.6-2c0.8-0.5,1.7-0.7,2.7-0.7c0.7,0,1.4,0.1,2,0.3
		c0.6,0.2,1.2,0.6,1.7,1.1c0.5,0.5,0.9,1.1,1.1,1.8c0.3,0.7,0.4,1.6,0.4,2.6v9.4h-3.8v-8.5c0-1.1-0.3-1.9-0.8-2.5
		c-0.5-0.6-1.2-0.9-2.2-0.9c-1.1,0-2,0.4-2.5,1.1c-0.6,0.8-0.8,1.8-0.8,3V41.2z"/>
	<path class="st0" d="M151.9,41.2h-4v-21h4v8.6h0.9l5.6-8.6h4.5v0.2l-6.5,10.1v0.5l6.8,10.1v0.2h-4.6l-5.7-8.6h-0.9V41.2z"/>
	<path class="st0" d="M165.1,37.6h5v-7.7h-4.7v-3.6h8.5v11.3h4.3v3.6h-13.1V37.6z M174.8,21.9c0,0.4-0.1,0.8-0.2,1.1
		c-0.1,0.4-0.4,0.7-0.6,0.9s-0.6,0.4-0.9,0.6c-0.4,0.2-0.7,0.2-1.1,0.2c-0.4,0-0.8-0.1-1.1-0.2c-0.3-0.2-0.6-0.3-0.9-0.6
		s-0.5-0.5-0.6-0.9c-0.1-0.3-0.2-0.7-0.2-1.1c0-0.4,0.1-0.8,0.2-1.1c0.2-0.3,0.4-0.6,0.6-0.9c0.3-0.2,0.6-0.4,0.9-0.6
		c0.3-0.2,0.7-0.2,1.1-0.2c0.4,0,0.7,0.1,1.1,0.2c0.3,0.2,0.7,0.4,0.9,0.6c0.3,0.3,0.5,0.6,0.6,0.9
		C174.8,21.1,174.8,21.5,174.8,21.9z"/>
	<path class="st0" d="M194.5,37.5l0.7-11.3h3.5l-1,14.9h-6.5l-0.8-11.2h-0.7l-0.8,11.2h-6.5l-1-14.9h3.5l0.7,11.3h0.7l0.7-11.3h6.2
		l0.7,11.3"/>
	<path class="st0" d="M201.6,37.6h5v-7.7h-4.7v-3.6h8.5v11.3h4.3v3.6h-13.1V37.6z M211.3,21.9c0,0.4-0.1,0.8-0.2,1.1
		c-0.1,0.4-0.4,0.7-0.6,0.9s-0.6,0.4-0.9,0.6c-0.4,0.2-0.7,0.2-1.1,0.2c-0.4,0-0.8-0.1-1.1-0.2c-0.3-0.2-0.6-0.3-0.9-0.6
		s-0.5-0.5-0.6-0.9c-0.1-0.3-0.2-0.7-0.2-1.1c0-0.4,0.1-0.8,0.2-1.1c0.2-0.3,0.4-0.6,0.6-0.9c0.3-0.2,0.6-0.4,0.9-0.6
		c0.3-0.2,0.7-0.2,1.1-0.2c0.4,0,0.7,0.1,1.1,0.2c0.3,0.2,0.7,0.4,0.9,0.6c0.3,0.3,0.5,0.6,0.6,0.9
		C211.2,21.1,211.3,21.5,211.3,21.9z"/>
</g>
</svg>
